<?xml version="1.0" encoding="UTF-8"?>
<!DOCTYPE svg PUBLIC "-//W3C//DTD SVG 1.0//EN" "http://www.w3.org/TR/2001/REC-SVG-20010904/DTD/svg10.dtd">
<svg onload="init(evt)" xml:space="preserve"
 viewBox="0 0 1200 800" width="1200" height="800" xml:lang="fr" xmlns:xlink="http://www.w3.org/1999/xlink" xmlns="http://www.w3.org/2000/svg">
 <script type="text/ecmascript" xlink:href="base.js" />
<desc>Just try ...</desc>
<rect x="10" y="600px" rx="10" ry="10" width="1180" height="200" stroke="#303030" fill="#FFFFFF"/>
<image width="35px" height="35px" xlink:href="actionOperateur.gif" x="475px" y="680px"/>
<text id="ligne1" x="475px" y="680px">
					(
					19
					,
					0
					)
				</text>
<image width="35px" height="35px" xlink:href="actionOperateur.gif" x="300px" y="680px"/>
<text id="ligne1" x="300px" y="680px">
					(
					12
					,
					0
					)
				</text>
<image onclick="affiche('divId', '0', '640')" width="35px" height="35px" xlink:href="actionInstructeur.gif" x="0px" y="640px"/>
<text id="ligne1" x="0px" y="640px">
					(0,0)
				</text>
<image width="35px" height="35px" xlink:href="alarme.gif" x="400px" y="720px"/>
<text id="ligne1" x="400px" y="720px">
					(
					16
					,
					0
					)
				</text>
<image width="35px" height="35px" xlink:href="actionOperateur.gif" x="50px" y="680px"/>
<text id="ligne1" x="50px" y="680px">
					(
					2
					,
					0
					)
				</text>
<image width="35px" height="35px" xlink:href="alarme.gif" x="600px" y="720px"/>
<text id="ligne1" x="600px" y="720px">
					(
					24
					,
					0
					)
				</text>
<image width="35px" height="35px" xlink:href="alarme.gif" x="450px" y="720px"/>
<text id="ligne1" x="450px" y="720px">
					(
					18
					,
					0
					)
				</text>
<image width="35px" height="35px" xlink:href="alarme.gif" x="275px" y="720px"/>
<text id="ligne1" x="275px" y="720px">
					(
					11
					,
					0
					)
				</text>
<rect x="10" y="300px" rx="10" ry="10" width="1180" height="200" stroke="#303030" fill="#FFFFFF"/>
<image width="35px" height="35px" xlink:href="actionInstructeur.gif" x="275px" y="340px"/>
<text id="ligne1" x="275px" y="340px">
					(11,300)
				</text>
<line x1="293" y1="372" x2="318" y2="680" style="fill:none;stroke:black;stroke-width:2px;"/>
<text id="ligne1" x="318px" y="680px">
			(318, 680)
		</text>
<line x1="293" y1="372" x2="418" y2="720" style="fill:none;stroke:black;stroke-width:2px;"/>
<text id="ligne1" x="418px" y="720px">
			(418, 720)
		</text>
<line x1="293" y1="372" x2="293" y2="720" style="fill:none;stroke:black;stroke-width:2px;"/>
<text id="ligne1" x="293px" y="720px">
			(293, 720)
		</text>
<image width="35px" height="35px" xlink:href="actionInstructeur.gif" x="450px" y="340px"/>
<text id="ligne1" x="450px" y="340px">
					(18,300)
				</text>
<line x1="468" y1="372" x2="493" y2="680" style="fill:none;stroke:black;stroke-width:2px;"/>
<text id="ligne1" x="493px" y="680px">
			(493, 680)
		</text>
<line x1="468" y1="372" x2="618" y2="720" style="fill:none;stroke:black;stroke-width:2px;"/>
<text id="ligne1" x="618px" y="720px">
			(618, 720)
		</text>
<line x1="468" y1="372" x2="468" y2="720" style="fill:none;stroke:black;stroke-width:2px;"/>
<text id="ligne1" x="468px" y="720px">
			(468, 720)
		</text>
		
		<!-- Pattern Definition -->
	<defs>
		<pattern id="checkerPattern" patternUnits="userSpaceOnUse"
				x="0" y="0" width="10" height="10"
				viewBox="0 0 10 10" >
				
			<rect x="0" y="0" width="5" height="5" fill="lightblue" />
			<rect x="5" y="5" width="5" height="5" fill="lightblue" />

		</pattern> 
	</defs>

	
	<!-- Javascript Example -->

    <circle cx="50%" cy="25%" r="40" fill="lightyellow" stroke-width="1" stroke="black"
        onclick="msClick()"
        onmousedown="msDown()"
        onmouseup="msUp()"
        onmouseover="msOver()"
        onmousemove="msMove()"
        onmouseout="msOut()"
        />

    <rect x="5" y="95" width="120" height="95" fill="white" stroke="grey" stroke-width="2" rx="10" ry="10" opacity="0.5" />

    <text x="10" y="110" id="clicks">onclick = 0</text>
    <text x="10" y="125" id="mousedowns">onmousedown = 0</text>
    <text x="10" y="140" id="mouseups">onmouseup = 0</text>
    <text x="10" y="155" id="mouseovers">onmouseover = 0</text>
    <text x="10" y="170" id="mousemoves">onmousemove = 0</text>
    <text x="10" y="185" id="mouseouts">onmouseout = 0</text>    


        
		
</svg>
