<?xml version="1.0" encoding="UTF-8"?>
<!DOCTYPE svg PUBLIC "-//W3C//DTD SVG 1.0//EN" "http://www.w3.org/TR/2001/REC-SVG-20010904/DTD/svg10.dtd">
<svg width="1200" height="800" xml:lang="fr" xmlns:xlink="http://www.w3.org/1999/xlink" xmlns="http://www.w3.org/2000/svg">
<rect x="10" y="600px" rx="0" ry="0" width="1180px" height="200" stroke="#303030" fill="#FFFFFF"/>
<image width="50px" height="50px" xlink:href="alarme.jpg" x="450px" y="720px"/>
<image width="50px" height="50px" xlink:href="alarme.jpg" x="275px" y="720px"/>
<image width="50px" height="50px" xlink:href="actionInstructeur.gif" x="0px" y="640px"/>
<image width="50px" height="50px" xlink:href="actionOperateur.gif" x="50px" y="680px"/>
<image width="50px" height="50px" xlink:href="actionOperateur.gif" x="300px" y="680px"/>
<image width="50px" height="50px" xlink:href="alarme.jpg" x="400px" y="720px"/>
<image width="50px" height="50px" xlink:href="alarme.jpg" x="600px" y="720px"/>
<image width="50px" height="50px" xlink:href="actionOperateur.gif" x="475px" y="680px"/>

<rect x="10" y="400px" rx="0" ry="0" width="1180px" height="200" stroke="#303030" fill="#FFFFFF"/>

<image width="50px" height="50px" xlink:href="actionInstructeur.gif" x="450px" y="440px"/>
<line x1="475" x2="625" y1="465" y2="720" style="fill:none;stroke:black;stroke-width:2px;"/>
<line x1="475" x2="475" y1="465" y2="720" style="fill:none;stroke:black;stroke-width:2px;"/>
<line x1="475" x2="500" y1="465" y2="680" style="fill:none;stroke:black;stroke-width:2px;"/>

</svg>
